# xmcd
#
# Track frame offsets: 
#        150
#        17757
#        36471
#        50022
#        62679
#        73083
#        100269
#        118321
#        130942
#        140430
#        164133
#        177933
#        200169
#        215196
#        235353
#        250015
#        272113
#
# Disc length: 4206 seconds
#
# Revision: 0
# Processed by: cddbd v1.5.2PL0 Copyright (c) Steve Scherf et al.
# Submitted via: ExactAudioCopy v1.0b3
#
DISCID=18106c11
DTITLE=Reverend Gary Davis - Rev. Gary Davis At Home and Church 1962-1
DTITLE=967 Disc Two
DYEAR=2010
DGENRE=Blues
TTITLE0=Piece Without Words
TTITLE1=Lord Search My Heart
TTITLE2=Slippin' To My Gal Comes In Partner
TTITLE3=Sun Is Going Down
TTITLE4=Raise A Ruckus Tonight
TTITLE5=Save Up Your Money, John D. Rockefeller Put The Panic On
TTITLE6=Soon My Work Will All Be Done
TTITLE7=You're Gonna Need King Jesus
TTITLE8=I'm Going Back To Jesus
TTITLE9=Blues In C
TTITLE10=Saddle It Around
TTITLE11=People Who Use To See
TTITLE12=Italian Rag
TTITLE13=Candyman
TTITLE14=Nobody Don't Care For Me
TTITLE15=Fox Chase
TTITLE16=Talk On Blind Boy Fuller
EXTD=
EXTT0=
EXTT1=
EXTT2=
EXTT3=
EXTT4=
EXTT5=
EXTT6=
EXTT7=
EXTT8=
EXTT9=
EXTT10=
EXTT11=
EXTT12=
EXTT13=
EXTT14=
EXTT15=
EXTT16=
PLAYORDER=
